<?xml version="1.0" encoding="utf-8"?>
<!-- Generator: Adobe Illustrator 24.3.0, SVG Export Plug-In . SVG Version: 6.00 Build 0)  -->
<svg version="1.1" id="Layer_1" xmlns="http://www.w3.org/2000/svg" xmlns:xlink="http://www.w3.org/1999/xlink" x="0px" y="0px"
	 viewBox="0 0 3860.32 3268.78" style="enable-background:new 0 0 3860.32 3268.78;" xml:space="preserve">
<style type="text/css">
	.st0{fill:#4361AD;}
	.st1{fill:#3156A7;}
	.st2{fill:#6989C6;}
</style>
<g>
	<path class="st0" d="M2594.2,2152.19c0,224-329,329.04-734.85,329.04s-734.85-118.51-734.85-329.04
		c0-405.85,329-734.85,734.85-734.85S2594.2,1746.34,2594.2,2152.19z"/>
	<path class="st1" d="M2594.2,2152.19c0,224-329,329.04-734.85,329.04c-302.12,0-561.66-65.67-674.59-186.09
		c132.19,53.48,312.1,81.76,510.36,81.76c405.85,0,734.85-105.03,734.85-329.03c0-226.05-102.06-428.25-262.62-563.06
		C2419.35,1601.3,2594.2,1856.33,2594.2,2152.19z"/>
	<circle class="st0" cx="1859.35" cy="1134.13" r="496.48"/>
	<path class="st1" d="M2355.84,1134.13c0,274.2-222.29,496.49-496.49,496.49c-235.29,0-432.37-163.68-483.55-383.4
		c74.89,152.9,232.04,258.19,413.78,258.19c254.33,0,460.5-206.17,460.5-460.49c0-141.71-64.01-268.47-164.7-352.95
		C2245.95,774.21,2355.84,941.34,2355.84,1134.13z"/>
	<path class="st2" d="M1676.22,960.85c-80.84,80.83-136.24,156.5-188.87,103.88c-52.63-52.63-29.76-160.83,51.08-241.67
		c80.84-80.83,189.03-103.71,241.66-51.08C1832.72,824.6,1757.06,880.01,1676.22,960.85z"/>
	<path class="st2" d="M1523.14,1836.64c-80.84,80.83-136.24,156.5-188.87,103.88c-52.63-52.63-29.76-160.83,51.08-241.67
		c80.84-80.83,189.03-103.71,241.66-51.08C1679.65,1700.4,1603.98,1755.8,1523.14,1836.64z"/>
</g>
</svg>
