<?xml version="1.0" encoding="utf-8"?>
<!-- Generator: Adobe Illustrator 24.3.0, SVG Export Plug-In . SVG Version: 6.00 Build 0)  -->
<svg version="1.1" xmlns="http://www.w3.org/2000/svg" xmlns:xlink="http://www.w3.org/1999/xlink" x="0px" y="0px"
	 viewBox="0 0 500 500" style="enable-background:new 0 0 500 500;" xml:space="preserve">
<style type="text/css">
	.st0{opacity:0.5;fill:#EAF4F9;}
	.st1{fill:none;}
	.st2{fill:#FF8E27;}
	.st3{fill:#101C42;}
	.st4{fill:#00BBDD;}
	.st5{fill:#F5A530;}
	.st6{font-family:'HoboStd';}
	.st7{font-size:25.8561px;}
</style>
<g id="BACKGROUND">
	<rect x="-0.08" y="0" class="st0" width="500" height="500"/>
	<path id="SVGID_x5F_1_x5F_" class="st1" d="M103.21,418.56c4.66,8.6,21.32,14.5,39.47,14.22c16.53-0.25,31.24-5.58,36.29-13.26"/>
	<text>	<textPath  xlink:href="#SVGID_x5F_1_x5F_" startOffset="17.3155%">
	</textPath>
</text>
</g>
<g id="OBJECTS">
	<g>
		<g>
			<g>
			</g>
		</g>
		<g>
			<g>
				<path class="st2" d="M395.48,245.24h-10.34l-5.17-8.95l5.17-8.95h10.34l5.17,8.95L395.48,245.24z"/>
				<path class="st3" d="M382.6,238.79v-5h-39l5.91-6.07c4.43-4.54,4.33-11.84-0.22-16.24l-19.64-19.11
					c-4.53-4.44-11.81-4.34-16.24,0.22l-5.94,6.11c-1.9,1.95-4.3,3.19-6.83,3.65v-7.21l12.32-12.32V159.2l5.68-3.28v-10.34
					l-8.95-5.17l-8.95,5.17v10.34l7.22,4.17v20.66l-12.32,12.32v9.2c-0.92-0.2-1.83-0.5-2.71-0.91c-3.18-1.49-6.47-2.83-9.82-4.01
					v-25.4l12.32-12.32v-23.04l6.69-3.86v-10.34l-8.95-5.17l-8.95,5.17v10.34l6.22,3.59v21.24l-12.32,12.32v25.17
					c-3.21-2.31-5.23-6.05-5.29-10.16l-0.12-8.51c-0.09-6.35-5.28-11.43-11.65-11.34l-14.48,0.19v61.95h-0.19v46.16l-6.45,3.72
					v10.34l8.95,5.17l8.95-5.17v-10.34l-6.45-3.72v-40.9c0.65,0.02,1.29,0.03,1.94,0.07c2.79,0.18,5.54,0.55,8.22,1.1v16.73
					l-6.45,3.72v10.34l8.95,5.17l8.95-5.17v-10.34l-6.45-3.72v-15.49c4.03,1.18,7.9,2.77,11.56,4.7v48.81l-7.24,4.18v10.34
					l8.95,5.17l8.95-5.17v-10.34l-5.67-3.27v-46.76c15.5,10.15,26.34,27.01,28.12,46.35c0.61,6.63,0.16,13.07-1.17,19.19h68.72
					c0.04-0.44,0.07-0.89,0.07-1.34l-0.38-27.4c-0.08-6.35-5.3-11.43-11.65-11.34l-8.52,0.11c-5.42,0.08-10.31-3.28-12.14-8.38
					c-0.33-0.92-0.68-1.84-1.04-2.75h15.67v-5h-17.81c-0.54-1.19-1.1-2.37-1.69-3.54c-1.54-3.05-1.73-6.51-0.72-9.63H382.6z
					 M304.72,153.6v-5.72l4.95-2.86l4.95,2.86v5.72l-4.95,2.86L304.72,153.6z M288.2,130.42v-5.72l4.95-2.86l4.95,2.86v5.72
					l-4.95,2.86L288.2,130.42z M253.83,279.37v5.72l-4.95,2.86l-4.95-2.86v-5.72l4.95-2.86L253.83,279.37z M268.99,256.37v5.72
					l-4.95,2.86l-4.95-2.86v-5.72l4.95-2.86L268.99,256.37z M284.77,294.85v5.72l-4.95,2.86l-4.95-2.86v-5.72l4.95-2.86
					L284.77,294.85z"/>
				<path class="st4" d="M373.67,263.41h-10.34l-5.17-8.95l5.17-8.95h10.34l5.17,8.95L373.67,263.41z"/>
			</g>
			<g>
				<g>
					<path class="st4" d="M236.72,122.22c-48.88,1.3-93.17,20.92-126.25,52.28l33.55,33.54c24.5-22.8,56.91-37.13,92.7-38.48V122.22
						z"/>
					<path class="st4" d="M236.72,179.86c-32.97,1.32-62.78,14.5-85.42,35.46l32.36,32.36c14.3-12.71,32.73-20.81,53.06-22.05
						V179.86z"/>
					<path class="st4" d="M236.72,260.06v-24.13c-17.5,1.2-33.38,8.18-45.78,19.05l18.88,18.88
						C216.87,266.6,226.23,261.61,236.72,260.06z"/>
				</g>
				<g>
					<path class="st5" d="M138.32,213.57c-23.48,24.77-38.17,57.9-39.14,94.48h35.43c1-26.78,11.72-51.02,28.79-69.38L138.32,213.57
						z"/>
					<path class="st2" d="M168.86,244.12c-15.68,16.94-25.55,39.26-26.54,63.92h34.25c0.93-15.21,6.99-29.01,16.51-39.71
						L168.86,244.12z"/>
					<path class="st5" d="M204.32,279.58l-5.8-5.79c-8.14,9.29-13.35,21.16-14.25,34.26h10.02
						C195.75,297.82,199.21,288.18,204.32,279.58z"/>
				</g>
			</g>
		</g>
	</g>
	<text transform="matrix(1.2677 0 0 1 137.8062 342.4062)" class="st3 st6 st7">InfoWatchdog</text>
</g>
</svg>
